<svg width="361" height="347" viewBox="0 0 361 347" fill="none" xmlns="http://www.w3.org/2000/svg">
<path d="M185.114 44.9927C207.952 44.9927 230.385 51.1101 250.141 62.7254C269.896 74.3407 286.273 91.0415 297.612 111.136C308.951 131.231 314.85 154.006 314.711 177.156C314.573 200.305 308.402 223.006 296.823 242.96L185.114 176.359V44.9927Z" fill="#CC0033"/>
<path fill-rule="evenodd" clip-rule="evenodd" d="M333.217 177.273L327.323 177.203C327.33 176.626 327.334 176.049 327.334 175.471C327.334 174.893 327.33 174.316 327.323 173.739L333.217 173.669C333.224 174.269 333.228 174.869 333.228 175.471C333.228 176.073 333.224 176.673 333.217 177.273ZM332.602 161.728L326.732 162.268C326.627 161.121 326.509 159.978 326.377 158.839L332.232 158.158C332.369 159.344 332.493 160.534 332.602 161.728ZM330.38 146.348L324.599 147.501C324.375 146.371 324.137 145.247 323.887 144.127L329.638 142.834C329.899 144 330.146 145.172 330.38 146.348ZM326.559 131.287L320.931 133.043C320.59 131.944 320.235 130.85 319.869 129.763L325.452 127.869C325.834 129.002 326.203 130.142 326.559 131.287ZM321.176 116.709L315.763 119.049C315.309 117.993 314.842 116.944 314.363 115.902L319.717 113.43C320.216 114.516 320.702 115.609 321.176 116.709ZM314.293 102.78L309.156 105.677C308.594 104.676 308.02 103.682 307.435 102.695L312.501 99.6746C313.11 100.702 313.708 101.737 314.293 102.78ZM305.994 89.6513L301.187 93.0704C300.524 92.1335 299.85 91.205 299.165 90.285L303.889 86.7509C304.602 87.7088 305.304 88.6757 305.994 89.6513ZM296.376 77.4614L291.949 81.3634C291.192 80.5007 290.425 79.6472 289.648 78.8032L293.98 74.7957C294.789 75.6745 295.587 76.5631 296.376 77.4614ZM285.544 66.3398L281.547 70.6817C280.705 69.9027 279.853 69.1337 278.993 68.375L282.885 63.938C283.781 64.728 284.668 65.5287 285.544 66.3398ZM273.618 56.4065L270.093 61.1417C269.175 60.4551 268.249 59.7794 267.314 59.1146L270.725 54.2957C271.698 54.9879 272.663 55.6916 273.618 56.4065ZM260.726 47.7734L257.713 52.8516C256.729 52.2649 255.737 51.6897 254.738 51.1263L257.628 45.9766C258.668 46.5633 259.701 47.1623 260.726 47.7734ZM247.004 40.5395L244.538 45.9063C243.498 45.4262 242.452 44.9584 241.398 44.5029L243.733 39.0775C244.83 39.552 245.921 40.0394 247.004 40.5395ZM232.6 34.7906L230.711 40.3877C229.626 40.0198 228.535 39.6647 227.439 39.3225L229.191 33.6808C230.333 34.0373 231.47 34.4073 232.6 34.7906ZM217.672 30.5942L216.382 36.3596C215.265 36.1085 214.143 35.8706 213.016 35.646L214.166 29.8508C215.34 30.0847 216.508 30.3326 217.672 30.5942ZM202.385 27.9943L201.705 33.8636C200.569 33.7313 199.429 33.6125 198.285 33.5072L198.824 27.6233C200.015 27.7329 201.202 27.8566 202.385 27.9943ZM186.912 27.0064L186.842 32.9147C186.267 32.9078 185.691 32.9044 185.114 32.9044C184.537 32.9044 183.962 32.9078 183.387 32.9147L183.316 27.0064C183.915 26.9992 184.514 26.9957 185.114 26.9957C185.714 26.9957 186.313 26.9992 186.912 27.0064ZM171.405 27.6232L171.943 33.5072C170.799 33.6125 169.659 33.7313 168.523 33.8636L167.843 27.9943C169.026 27.8566 170.213 27.7329 171.405 27.6232ZM156.062 29.8508L157.212 35.646C156.085 35.8706 154.963 36.1085 153.847 36.3596L152.557 30.5941C153.72 30.3326 154.889 30.0847 156.062 29.8508ZM141.037 33.6808L142.789 39.3225C141.693 39.6647 140.602 40.0198 139.517 40.3877L137.628 34.7905C138.759 34.4073 139.895 34.0373 141.037 33.6808ZM126.495 39.0775L128.83 44.5029C127.777 44.9584 126.73 45.4262 125.69 45.9063L123.224 40.5395C124.307 40.0394 125.398 39.552 126.495 39.0775ZM112.6 45.9766L115.49 51.1263C114.491 51.6897 113.5 52.2649 112.516 52.8516L109.502 47.7734C110.527 47.1623 111.56 46.5633 112.6 45.9766ZM99.5033 54.2957L102.914 59.1146C101.979 59.7794 101.053 60.4551 100.136 61.1417L96.61 56.4065C97.5656 55.6916 98.5301 54.9879 99.5033 54.2957ZM87.3431 63.938L91.2356 68.375C90.375 69.1337 89.5236 69.9027 88.6816 70.6817L84.6839 66.3398C85.5605 65.5286 86.447 64.728 87.3431 63.938ZM76.2486 74.7956L80.58 78.8032C79.8028 79.6472 79.0357 80.5007 78.2788 81.3634L73.8527 77.4614C74.6407 76.5631 75.4394 75.6745 76.2486 74.7956ZM66.3395 86.7509L71.0632 90.285C70.3782 91.205 69.7041 92.1335 69.041 93.0704L64.2338 89.6513C64.9243 88.6757 65.6263 87.7088 66.3395 86.7509ZM57.7274 99.6746L62.7932 102.695C62.2079 103.682 61.6342 104.676 61.0722 105.677L55.9349 102.78C56.5203 101.737 57.1178 100.702 57.7274 99.6746ZM50.5111 113.43L55.8649 115.902C55.386 116.944 54.9192 117.993 54.4648 119.049L49.0527 116.709C49.526 115.609 50.0122 114.516 50.5111 113.43ZM44.7762 127.869L50.3597 129.763C49.9927 130.85 49.6384 131.944 49.2971 133.043L43.6691 131.287C44.0248 130.142 44.3938 129.002 44.7762 127.869ZM40.59 142.834L46.3414 144.127C46.0909 145.247 45.8535 146.371 45.6295 147.5L39.8484 146.348C40.0818 145.172 40.329 144 40.59 142.834ZM37.9965 158.158L43.8514 158.839C43.7195 159.978 43.601 161.121 43.4959 162.268L37.6263 161.728C37.7356 160.534 37.8591 159.343 37.9965 158.158ZM37.0109 173.669C37.0038 174.269 37.0002 174.869 37.0002 175.471C37.0002 176.072 37.0038 176.673 37.0109 177.273L42.9048 177.203C42.898 176.626 42.8946 176.049 42.8946 175.471C42.8946 174.893 42.898 174.316 42.9048 173.739L37.0109 173.669ZM37.6263 189.214L43.4959 188.674C43.6009 189.821 43.7195 190.964 43.8514 192.103L37.9965 192.784C37.8591 191.598 37.7356 190.408 37.6263 189.214ZM39.8484 204.594L45.6295 203.441C45.8535 204.571 46.0909 205.695 46.3414 206.815L40.59 208.108C40.329 206.942 40.0818 205.77 39.8484 204.594ZM43.6691 219.655L49.2971 217.899C49.6384 218.998 49.9927 220.092 50.3597 221.179L44.7761 223.073C44.3938 221.94 44.0247 220.8 43.6691 219.655ZM49.0527 234.233L54.4648 231.893C54.9192 232.948 55.3859 233.998 55.8649 235.04L50.5111 237.512C50.0122 236.426 49.526 235.333 49.0527 234.233ZM55.9349 248.162L61.0722 245.265C61.6342 246.266 62.2079 247.26 62.7932 248.247L57.7274 251.267C57.1178 250.24 56.5203 249.205 55.9349 248.162ZM64.2338 261.291L69.041 257.872C69.7041 258.808 70.3782 259.737 71.0632 260.657L66.3395 264.191C65.6263 263.233 64.9243 262.266 64.2338 261.291ZM73.8527 273.481L78.2788 269.579C79.0357 270.441 79.8028 271.295 80.5799 272.139L76.2486 276.146C75.4394 275.267 74.6407 274.379 73.8527 273.481ZM84.6839 284.602L88.6816 280.26C89.5236 281.039 90.375 281.808 91.2356 282.567L87.3431 287.004C86.447 286.214 85.5605 285.413 84.6839 284.602ZM96.61 294.535L100.136 289.8C101.053 290.487 101.979 291.163 102.914 291.827L99.5033 296.646C98.5301 295.954 97.5656 295.25 96.61 294.535ZM109.502 303.169L112.516 298.09C113.5 298.677 114.491 299.252 115.49 299.816L112.6 304.965C111.56 304.379 110.527 303.78 109.502 303.169ZM123.224 310.402L125.69 305.036C126.73 305.516 127.776 305.984 128.83 306.439L126.495 311.864C125.398 311.39 124.307 310.903 123.224 310.402ZM137.628 316.151L139.517 310.554C140.602 310.922 141.693 311.277 142.789 311.619L141.037 317.261C139.895 316.905 138.759 316.535 137.628 316.151ZM152.557 320.348L153.847 314.582C154.963 314.833 156.085 315.071 157.212 315.296L156.062 321.091C154.888 320.857 153.72 320.609 152.557 320.348ZM167.843 322.948L168.523 317.078C169.659 317.211 170.799 317.329 171.943 317.435L171.404 323.319C170.213 323.209 169.026 323.085 167.843 322.948ZM183.316 323.936L183.386 318.027C183.961 318.034 184.537 318.038 185.114 318.038C185.691 318.038 186.267 318.034 186.842 318.027L186.912 323.936C186.313 323.943 185.714 323.946 185.114 323.946C184.514 323.946 183.915 323.943 183.316 323.936ZM198.824 323.319L198.285 317.435C199.429 317.329 200.569 317.211 201.705 317.078L202.385 322.948C201.202 323.085 200.015 323.209 198.824 323.319ZM214.166 321.091L213.016 315.296C214.143 315.071 215.265 314.833 216.382 314.582L217.672 320.348C216.508 320.609 215.34 320.857 214.166 321.091ZM229.191 317.261C230.333 316.905 231.47 316.535 232.6 316.151L230.711 310.554C229.626 310.922 228.535 311.277 227.439 311.619L229.191 317.261ZM243.733 311.864L241.398 306.439C242.452 305.984 243.498 305.516 244.538 305.036L247.004 310.402C245.921 310.903 244.83 311.39 243.733 311.864ZM257.628 304.965L254.738 299.816C255.737 299.252 256.729 298.677 257.713 298.09L260.726 303.169C259.701 303.78 258.668 304.379 257.628 304.965ZM270.725 296.646L267.314 291.827C268.249 291.163 269.175 290.487 270.093 289.8L273.618 294.535C272.663 295.25 271.698 295.954 270.725 296.646ZM282.885 287.004L278.993 282.567C279.853 281.808 280.705 281.039 281.547 280.26L285.544 284.602C284.668 285.413 283.781 286.214 282.885 287.004ZM293.98 276.146L289.648 272.139C290.425 271.295 291.192 270.441 291.949 269.579L296.376 273.481C295.587 274.379 294.789 275.267 293.98 276.146ZM303.889 264.191L299.165 260.657C299.85 259.737 300.524 258.808 301.187 257.872L305.994 261.291C305.304 262.266 304.602 263.233 303.889 264.191ZM312.501 251.267L307.435 248.247C308.02 247.26 308.594 246.266 309.156 245.265L314.293 248.162C313.708 249.205 313.11 250.24 312.501 251.267ZM319.717 237.512L314.363 235.04C314.842 233.998 315.309 232.949 315.763 231.893L321.175 234.233C320.702 235.333 320.216 236.426 319.717 237.512ZM325.452 223.073L319.868 221.179C320.235 220.092 320.59 218.998 320.931 217.899L326.559 219.655C326.203 220.8 325.834 221.94 325.452 223.073ZM329.638 208.108L323.887 206.815C324.137 205.695 324.375 204.571 324.599 203.441L330.38 204.594C330.146 205.77 329.899 206.942 329.638 208.108ZM332.232 192.784L326.377 192.103C326.509 190.964 326.627 189.821 326.732 188.674L332.602 189.214C332.493 190.408 332.369 191.598 332.232 192.784Z" fill="#51638D"/>
<path fill-rule="evenodd" clip-rule="evenodd" d="M333.208 177.91L315.528 177.625C315.539 176.908 315.545 176.19 315.545 175.471C315.545 174.752 315.539 174.034 315.528 173.317L333.208 173.032C333.221 173.843 333.228 174.656 333.228 175.471C333.228 176.286 333.221 177.099 333.208 177.91ZM314.603 103.335L299.154 111.96C298.462 110.713 297.749 109.478 297.017 108.257L312.176 99.1296C313.007 100.517 313.816 101.919 314.603 103.335ZM261.27 48.0991L252.165 63.2948C250.946 62.5611 249.715 61.8468 248.471 61.1524L257.074 45.666C258.487 46.4547 259.886 47.2659 261.27 48.0991ZM187.547 27.0153L187.262 44.7391C186.548 44.7275 185.832 44.7217 185.114 44.7217C184.396 44.7217 183.68 44.7275 182.966 44.7391L182.681 27.0153C183.49 27.0022 184.302 26.9957 185.114 26.9957C185.927 26.9957 186.738 27.0022 187.547 27.0153ZM113.154 45.666L121.757 61.1524C120.514 61.8468 119.282 62.5611 118.064 63.2948L108.959 48.0991C110.342 47.2659 111.741 46.4547 113.154 45.666ZM58.0523 99.1296L73.211 108.257C72.4791 109.478 71.7665 110.713 71.0738 111.96L55.6251 103.335C56.4119 101.919 57.2211 100.517 58.0523 99.1296ZM37.0198 173.032C37.0068 173.843 37.0002 174.656 37.0002 175.471C37.0002 176.286 37.0068 177.099 37.0198 177.91L54.7005 177.625C54.6889 176.908 54.6832 176.19 54.6832 175.471C54.6832 174.752 54.6889 174.034 54.7005 173.317L37.0198 173.032ZM55.6251 247.607L71.0739 238.982C71.7665 240.229 72.4791 241.464 73.211 242.685L58.0523 251.812C57.2211 250.425 56.4119 249.023 55.6251 247.607ZM108.959 302.843L118.064 287.647C119.282 288.381 120.514 289.095 121.757 289.79L113.154 305.276C111.741 304.487 110.342 303.676 108.959 302.843ZM182.681 323.927L182.966 306.203C183.68 306.214 184.396 306.22 185.114 306.22C185.832 306.22 186.548 306.214 187.262 306.203L187.547 323.927C186.738 323.94 185.927 323.946 185.114 323.946C184.302 323.946 183.49 323.94 182.681 323.927ZM257.074 305.276L248.471 289.79C249.715 289.095 250.946 288.381 252.165 287.647L261.27 302.843C259.886 303.676 258.487 304.487 257.074 305.276ZM312.176 251.812L297.017 242.685C297.749 241.464 298.462 240.229 299.154 238.982L314.603 247.607C313.816 249.023 313.007 250.425 312.176 251.812Z" fill="#51638D"/>
<path d="M176.454 17.997L178.316 16.0839H182.782L184.535 17.997H176.454ZM175.911 9.29963L177.864 11.1418V15.4817L175.911 17.2176V9.29963ZM185.114 17.2176L183.161 15.3931V11.0356L185.114 9.29963V17.2176ZM176.436 0H184.517L182.727 1.91307H178.298L176.436 0ZM175.857 8.67966V0.761684L177.81 2.4799V6.87287L175.857 8.67966ZM185.06 0.761684V8.67966L183.107 6.96144V2.58618L185.06 0.761684Z" fill="black"/>
<path d="M269.025 44.9927L270.887 43.0796H275.353L277.107 44.9927H269.025ZM277.685 44.2133L275.733 42.3888V38.0312L277.685 36.2953V44.2133ZM270.58 36.933C270.158 36.6023 269.73 36.2776 269.296 35.9587L270.58 35.0199H275.516L276.781 35.9587L275.516 36.933H270.58ZM269.007 26.9957H277.089L275.299 28.9087H270.869L269.007 26.9957ZM268.428 35.6753V27.7574L270.381 29.4756V33.8685L268.428 35.6753Z" fill="black"/>
<path d="M330.762 99.9073L332.617 98.0166H337.065L338.812 99.9073H330.762ZM330.222 91.3117L332.167 93.1324V97.4214L330.222 99.137V91.3117ZM339.389 99.137L337.444 97.3339V93.0273L339.389 91.3117V99.137ZM330.744 82.121H338.794L337.011 84.0116H332.599L330.744 82.121ZM330.168 90.699V82.8737L332.113 84.5718V88.9134L330.168 90.699ZM339.335 82.8737V90.699L337.39 89.0009V84.6769L339.335 82.8737Z" fill="black"/>
<path d="M324.984 99.137L323.039 97.3339V93.0274L324.984 91.3118V99.137ZM324.93 82.8738V90.6991L322.985 89.001V84.6769L324.93 82.8738Z" fill="black"/>
<path d="M352.374 183.937L354.229 182.047H358.677L360.424 183.937H352.374ZM361 183.167L359.055 181.364V177.057L361 175.342V183.167ZM353.923 175.972C353.502 175.645 353.076 175.324 352.644 175.009L353.923 174.081H358.839L360.1 175.009L358.839 175.972H353.923ZM352.356 166.151H360.406L358.623 168.042H354.211L352.356 166.151ZM351.78 174.729V166.904L353.725 168.602V172.943L351.78 174.729Z" fill="black"/>
<path d="M346.596 183.167L344.651 181.363V177.057L346.596 175.341V183.167ZM346.542 166.903V174.729L344.597 173.03V168.706L346.542 166.903Z" fill="black"/>
<path d="M337.966 262.132L339.821 260.241H344.269L346.016 262.132H337.966ZM337.426 253.536L339.371 255.357V259.646L337.426 261.361V253.536ZM346.592 261.361L344.647 259.558V255.252L346.592 253.536V261.361ZM337.948 244.345H345.998L344.215 246.236H339.803L337.948 244.345ZM337.372 252.923V245.098L339.317 246.796V251.138L337.372 252.923ZM346.538 245.098V252.923L344.593 251.225V246.901L346.538 245.098Z" fill="black"/>
<path d="M323.562 262.132L325.417 260.241H329.865L331.612 262.132H323.562ZM323.021 253.536L324.966 255.357V259.646L323.021 261.361V253.536ZM325.111 254.166C324.69 253.839 324.264 253.518 323.832 253.203L325.111 252.276H330.027L331.288 253.203L330.027 254.166H325.111ZM323.544 244.345H331.594L329.811 246.236H325.399L323.544 244.345ZM332.134 245.098V252.923L330.189 251.225V246.901L332.134 245.098Z" fill="black"/>
<path d="M276.734 325.154L278.589 323.263H283.037L284.784 325.154H276.734ZM285.36 324.384L283.415 322.58V318.274L285.36 316.558V324.384ZM278.282 317.189C277.862 316.862 277.436 316.541 277.004 316.226L278.282 315.298H283.199L284.46 316.226L283.199 317.189H278.282ZM276.716 307.368H284.766L282.983 309.258H278.571L276.716 307.368ZM276.139 315.946V308.12L278.084 309.818V314.16L276.139 315.946Z" fill="black"/>
<path d="M262.329 325.154L264.184 323.263H268.633L270.38 325.154H262.329ZM261.789 316.558L263.734 318.379V322.668L261.789 324.384V316.558ZM263.878 317.189C263.458 316.862 263.032 316.541 262.6 316.226L263.878 315.298H268.795L270.055 316.226L268.795 317.189H263.878ZM262.311 307.368H270.362L268.579 309.258H264.166L262.311 307.368ZM270.902 308.12V315.946L268.957 314.247V309.923L270.902 308.12Z" fill="black"/>
<path d="M187.888 346.161L189.743 344.271H194.192L195.938 346.161H187.888ZM187.348 337.566L189.293 339.387V343.676L187.348 345.391V337.566ZM196.515 345.391L194.57 343.588V339.281L196.515 337.566V345.391ZM187.87 328.375H195.92L194.137 330.266H189.725L187.87 328.375ZM187.294 336.953V329.128L189.239 330.826V335.168L187.294 336.953ZM196.461 329.128V336.953L194.516 335.255V330.931L196.461 329.128Z" fill="black"/>
<path d="M173.538 346.162L175.357 344.271H179.823L181.57 346.162H173.538ZM182.128 345.391L180.201 343.588V339.282L182.128 337.566V345.391ZM175.051 338.196C174.643 337.869 174.222 337.548 173.79 337.233L175.051 336.306H179.967L181.228 337.233L179.967 338.196H175.051ZM173.484 328.375H181.552L179.787 330.266H175.339L173.484 328.375ZM182.074 329.128V336.953L180.147 335.255V330.931L182.074 329.128Z" fill="black"/>
<path d="M99.0416 325.154L100.897 323.263H105.345L107.092 325.154H99.0416ZM107.668 324.384L105.723 322.58V318.274L107.668 316.558V324.384ZM100.59 317.189C100.17 316.862 99.7439 316.541 99.3117 316.226L100.59 315.298H105.507L106.768 316.226L105.507 317.189H100.59ZM99.0236 307.368H107.074L105.291 309.258H100.879L99.0236 307.368ZM98.4473 315.946V308.12L100.392 309.818V314.16L98.4473 315.946Z" fill="black"/>
<path d="M84.6914 325.154L86.5103 323.263H90.9766L92.7235 325.154H84.6914ZM93.2818 324.384L91.3548 322.58V318.274L93.2818 316.558V324.384ZM86.2041 317.189C85.7959 316.862 85.3757 316.541 84.9435 316.226L86.2041 315.298H91.1207L92.3813 316.226L91.1207 317.189H86.2041ZM84.6373 307.368H92.7055L90.9406 309.258H86.4923L84.6373 307.368ZM93.2278 308.12V315.946L91.3008 314.247V309.923L93.2278 308.12Z" fill="black"/>
<path d="M36.6103 262.132L38.4653 260.241H42.9136L44.6605 262.132H36.6103ZM36.07 253.536L38.015 255.357V259.646L36.07 261.361V253.536ZM45.2368 261.361L43.2918 259.558V255.252L45.2368 253.536V261.361ZM36.5923 244.345H44.6425L42.8595 246.236H38.4472L36.5923 244.345ZM36.016 252.923V245.098L37.961 246.796V251.138L36.016 252.923ZM45.1827 245.098V252.923L43.2377 251.225V246.901L45.1827 245.098Z" fill="black"/>
<path d="M30.8325 261.361L28.8875 259.558V255.252L30.8325 253.536V261.361ZM23.7548 254.166C23.3346 253.839 22.9084 253.519 22.4761 253.203L23.7548 252.276H28.6714L29.932 253.203L28.6714 254.166H23.7548ZM21.6117 252.923V245.098L23.5567 246.796V251.138L21.6117 252.923ZM30.7784 245.098V252.923L28.8334 251.225V246.901L30.7784 245.098Z" fill="black"/>
<path d="M14.9987 183.937L16.8537 182.047H21.302L23.0489 183.937H14.9987ZM23.6252 183.167L21.6802 181.364V177.057L23.6252 175.342V183.167ZM16.5475 175.972C16.1273 175.645 15.7011 175.324 15.2689 175.009L16.5475 174.081H21.4641L22.7247 175.009L21.4641 175.972H16.5475ZM14.9807 166.151H23.0309L21.248 168.042H16.8357L14.9807 166.151ZM14.4044 174.729V166.904L16.3494 168.602V172.943L14.4044 174.729Z" fill="black"/>
<path d="M9.22078 183.167L7.27577 181.363V177.057L9.22078 175.341V183.167ZM2.14311 175.972C1.72289 175.645 1.29667 175.324 0.864448 175.009L2.14311 174.081H7.05966L8.32031 175.009L7.05966 175.972H2.14311ZM0 174.729V166.903L1.94501 168.601V172.943L0 174.729ZM9.16675 166.903V174.729L7.22174 173.03V168.706L9.16675 166.903Z" fill="black"/>
<path d="M36.6103 102.241L38.4653 100.351H42.9136L44.6605 102.241H36.6103ZM36.07 93.6458L38.015 95.4665V99.7555L36.07 101.471V93.6458ZM45.2368 101.471L43.2918 99.668V95.3614L45.2368 93.6458V101.471ZM36.5923 84.4551H44.6425L42.8595 86.3457H38.4472L36.5923 84.4551ZM36.016 93.0331V85.2078L37.961 86.9059V91.2475L36.016 93.0331ZM45.1827 85.2078V93.0331L43.2377 91.335V87.011L45.1827 85.2078Z" fill="black"/>
<path d="M22.206 102.241L24.061 100.351H28.5093L30.2562 102.241H22.206ZM30.8325 101.471L28.8875 99.668V95.3614L30.8325 93.6458V101.471ZM23.7548 94.2761C23.3346 93.9493 22.9084 93.6283 22.4761 93.3132L23.7548 92.3854H28.6714L29.932 93.3132L28.6714 94.2761H23.7548ZM22.188 84.4551H30.2382L28.4552 86.3457H24.043L22.188 84.4551ZM21.6117 93.0331V85.2078L23.5567 86.9059V91.2475L21.6117 93.0331Z" fill="black"/>
<path d="M97.8416 41.5535L99.6966 39.6628H104.145L105.892 41.5535H97.8416ZM106.468 40.7832L104.523 38.9801V34.6736L106.468 32.958V40.7832ZM99.3904 33.5882C98.9702 33.2614 98.544 32.9405 98.1118 32.6254L99.3904 31.6975H104.307L105.568 32.6254L104.307 33.5882H99.3904ZM97.8236 23.7672H105.874L104.091 25.6579H99.6786L97.8236 23.7672ZM97.2473 32.3453V24.52L99.1923 26.2181V30.5596L97.2473 32.3453Z" fill="black"/>
<path d="M83.4372 41.5535L85.2922 39.6628H89.7405L91.4874 41.5535H83.4372ZM92.0637 40.7832L90.1187 38.98V34.6735L92.0637 32.9579V40.7832ZM84.986 33.5881C84.5658 33.2614 84.1396 32.9404 83.7073 32.6253L84.986 31.6975H89.9026L91.1632 32.6253L89.9026 33.5881H84.986ZM83.4192 23.7672H91.4694L89.6864 25.6578H85.2742L83.4192 23.7672ZM82.8429 32.3452V24.5199L84.7879 26.218V30.5596L82.8429 32.3452Z" fill="black"/>
</svg>
