<?xml version="1.0" encoding="utf-8"?>
<!-- Generator: Adobe Illustrator 21.1.0, SVG Export Plug-In . SVG Version: 6.00 Build 0)  -->
<svg version="1.1" id="Capa_1" xmlns="http://www.w3.org/2000/svg" xmlns:xlink="http://www.w3.org/1999/xlink" x="0px" y="0px"
	 viewBox="0 0 250 255.2" style="enable-background:new 0 0 250 255.2;" xml:space="preserve">
<style type="text/css">
	.st0{fill:#424A60;}
	.st1{fill:#E7ECED;}
	.st2{fill:#FFFFFF;}
	.st3{fill:#1DB3EB;}
</style>
<g>
	<path class="st0" d="M68,230l-17.6,17.6c-1.7,1.7-1.7,4.6,0,6.3c0.9,0.9,2,1.3,3.2,1.3s2.3-0.4,3.2-1.3l17.6-17.6
		c1.7-1.7,1.7-4.6,0-6.3C72.5,228.2,69.7,228.2,68,230z"/>
	<path class="st0" d="M199.6,247.5l-17.7-17.7c-1.7-1.7-4.6-1.7-6.3,0s-1.7,4.6,0,6.3l17.7,17.7c0.9,0.9,2,1.3,3.2,1.3
		s2.3-0.4,3.2-1.3C201.3,252.1,201.3,249.3,199.6,247.5z"/>
</g>
<path class="st0" d="M208.6,49.7c0.1-0.1,0.2-0.1,0.3-0.2l13.4-13.4c1.7-1.7,1.7-4.6,0-6.3s-4.6-1.7-6.3,0l-13.4,13.4
	c-0.1,0.1-0.2,0.3-0.3,0.5c-20.5-18.3-47.6-29.5-77.3-29.5S68.2,25.3,47.7,43.6c-0.1-0.1-0.2-0.3-0.3-0.5L34,29.7
	c-1.7-1.7-4.6-1.7-6.3,0s-1.7,4.6,0,6.3l13.4,13.4c0.1,0.1,0.2,0.1,0.3,0.2C21.3,70.5,8.9,98.9,8.9,130.2
	c0,64.1,52,116.1,116.1,116.1s116.1-52,116.1-116.1C241.1,98.9,228.7,70.5,208.6,49.7z"/>
<circle class="st1" cx="125" cy="130.2" r="98.2"/>
<circle class="st2" cx="125" cy="130.2" r="80"/>
<g>
	<path class="st2" d="M125,27.5c-2.5,0-4.5,2-4.5,4.5v8.9c0,2.5,2,4.5,4.5,4.5s4.5-2,4.5-4.5v-8.9C129.5,29.5,127.5,27.5,125,27.5z"
		/>
	<path class="st2" d="M125,215c-2.5,0-4.5,2-4.5,4.5v8.9c0,2.5,2,4.5,4.5,4.5s4.5-2,4.5-4.5v-8.9C129.5,217,127.5,215,125,215z"/>
	<path class="st2" d="M223.2,125.7h-8.9c-2.5,0-4.5,2-4.5,4.5c0,2.5,2,4.5,4.5,4.5h8.9c2.5,0,4.5-2,4.5-4.5
		C227.7,127.7,225.7,125.7,223.2,125.7z"/>
	<path class="st2" d="M40.2,130.2c0-2.5-2-4.5-4.5-4.5h-8.9c-2.5,0-4.5,2-4.5,4.5c0,2.5,2,4.5,4.5,4.5h8.9
		C38.2,134.6,40.2,132.6,40.2,130.2z"/>
	<path class="st2" d="M79.8,42.9c-1.2-2.1-4-2.9-6.1-1.6c-2.1,1.2-2.9,4-1.6,6.1l4.5,7.7c0.8,1.4,2.3,2.2,3.9,2.2
		c0.8,0,1.5-0.2,2.2-0.6c2.1-1.2,2.9-4,1.6-6.1L79.8,42.9z"/>
	<path class="st2" d="M173.5,205.3c-1.2-2.1-4-2.9-6.1-1.6c-2.1,1.2-2.9,4-1.6,6.1l4.5,7.7c0.8,1.4,2.3,2.2,3.9,2.2
		c0.8,0,1.5-0.2,2.2-0.6c2.1-1.2,2.9-4,1.6-6.1L173.5,205.3z"/>
	<path class="st2" d="M49.9,81.6l-7.7-4.5c-2.1-1.2-4.9-0.5-6.1,1.6c-1.2,2.1-0.5,4.9,1.6,6.1l7.7,4.5c0.7,0.4,1.5,0.6,2.2,0.6
		c1.5,0,3-0.8,3.9-2.2C52.8,85.6,52,82.9,49.9,81.6z"/>
	<path class="st2" d="M212.3,175.4l-7.7-4.5c-2.1-1.2-4.9-0.5-6.1,1.6c-1.2,2.1-0.5,4.9,1.6,6.1l7.7,4.5c0.7,0.4,1.5,0.6,2.2,0.6
		c1.5,0,3-0.8,3.9-2.2C215.2,179.4,214.4,176.6,212.3,175.4z"/>
	<path class="st2" d="M45.4,170.9l-7.7,4.5c-2.1,1.2-2.9,4-1.6,6.1c0.8,1.4,2.3,2.2,3.9,2.2c0.8,0,1.5-0.2,2.2-0.6l7.7-4.5
		c2.1-1.2,2.9-4,1.6-6.1C50.3,170.4,47.6,169.7,45.4,170.9z"/>
	<path class="st2" d="M202.3,90c0.8,0,1.5-0.2,2.2-0.6l7.7-4.5c2.1-1.2,2.9-4,1.6-6.1c-1.2-2.1-4-2.9-6.1-1.6l-7.7,4.5
		c-2.1,1.2-2.9,4-1.6,6.1C199.3,89.2,200.8,90,202.3,90z"/>
	<path class="st2" d="M82.6,203.6c-2.1-1.2-4.9-0.5-6.1,1.6L72,213c-1.2,2.1-0.5,4.9,1.6,6.1c0.7,0.4,1.5,0.6,2.2,0.6
		c1.5,0,3-0.8,3.9-2.2l4.5-7.7C85.5,207.6,84.7,204.8,82.6,203.6z"/>
	<path class="st2" d="M176.3,41.2c-2.1-1.2-4.9-0.5-6.1,1.6l-4.5,7.7c-1.2,2.1-0.5,4.9,1.6,6.1c0.7,0.4,1.5,0.6,2.2,0.6
		c1.5,0,3-0.8,3.9-2.2l4.5-7.7C179.2,45.2,178.5,42.5,176.3,41.2z"/>
</g>
<path class="st3" d="M240.7,9.3c12.4,12.4,12.4,32.5,0,45l-45-45C208.1-3.1,228.3-3.1,240.7,9.3z"/>
<path class="st3" d="M9.3,9.3c-12.4,12.4-12.4,32.5,0,45l45-45C41.9-3.1,21.7-3.1,9.3,9.3z"/>
<g>
	<path class="st0" d="M68.9,119.3c-0.8,0.6-1.6,0.9-2.6,0.9c-1.3,0-2.8-0.7-3.6-1.9l-3-4.1c-0.6-0.8-0.9-1.7-0.9-2.6
		c0-1.4,0.7-2.8,1.9-3.6l12.6-9.1c1.5-1.1,2.9-1.9,4.9-1.9h3.6c2.4,0,4.4,2,4.4,4.4v57.9c0,2.4-2,4.4-4.4,4.4h-5.5
		c-2.4,0-4.4-2-4.4-4.4v-42L68.9,119.3z"/>
	<path class="st0" d="M140.5,159.2c0,2.4-2,4.4-4.4,4.4h-34.3c-2.4,0-4.4-2-4.4-4.4v-4.8c0-1.9,0.9-3.1,2.3-4.5
		c10.6-10.2,23.2-22,23.2-33c0-4.8-2.3-6.6-6.1-6.6c-2.5,0-4.5,1.5-5.9,3.7c-1.2,1.9-2.5,3-4.2,3c-0.8,0-1.5-0.2-2.5-0.6l-4.6-1.9
		c-1.4-0.7-2.4-2.1-2.4-3.7c0-0.6,0.1-1.2,0.4-1.8c3.3-8.2,10.7-13,20.9-13c13,0,19.6,8.6,19.6,18c0,18.8-17.3,32.3-22.3,36.1h20.2
		c2.4,0,4.4,2,4.4,4.4V159.2z"/>
	<path class="st0" d="M187.3,112.8c0,7.9-3.2,12.6-9.9,15.7c8.2,1.8,12.5,8,12.5,16c0,12.6-9.9,20.2-22.7,20.2c-8.3,0-14.8-2.4-21-9
		c-0.8-0.8-1-1.9-1-3c0-1.2,0.4-2.5,1.2-3.3l3.2-3.2c1-1,2.2-1.5,3.4-1.5c1,0,2.2,0.4,3.2,1.2c3.6,2.9,7.1,4.5,9.9,4.5
		c5.8,0,8.4-3,8.4-6.5c0-5-3.9-7.3-11.3-7.3c-2.4,0-4.2-1.8-4.2-4.1v-6.5c0-2,1.7-3.7,3.8-3.7c5,0,9.1-2.1,9.1-6.7
		c0-2.9-1.6-5.6-6.1-5.6c-2.9,0-5.7,1.1-8.7,3c-0.9,0.5-1.8,0.8-2.8,0.8c-1.4,0-2.8-0.7-3.7-2l-2.3-3.2c-0.6-0.8-0.9-1.8-0.9-2.8
		c0-1.3,0.6-2.7,1.6-3.4c5.4-4.2,11.1-6.6,18-6.6C179.1,95.8,187.3,102.3,187.3,112.8z"/>
</g>
</svg>
