<svg width="60" height="20" viewBox="0 0 60 20" fill="none" xmlns="http://www.w3.org/2000/svg">
<rect width="60" height="20" rx="6.25" fill="#DD16EE" fill-opacity="0.32"/>
<path d="M24.1475 14V6H27.3037C27.9105 6 28.4274 6.11589 28.8545 6.34766C29.2816 6.57682 29.6071 6.89583 29.8311 7.30469C30.0576 7.71094 30.1709 8.17969 30.1709 8.71094C30.1709 9.24219 30.0563 9.71094 29.8271 10.1172C29.598 10.5234 29.266 10.8398 28.8311 11.0664C28.3988 11.293 27.8753 11.4062 27.2607 11.4062H25.249V10.0508H26.9873C27.3128 10.0508 27.5811 9.99479 27.792 9.88281C28.0055 9.76823 28.1644 9.61068 28.2686 9.41016C28.3753 9.20703 28.4287 8.97396 28.4287 8.71094C28.4287 8.44531 28.3753 8.21354 28.2686 8.01562C28.1644 7.8151 28.0055 7.66016 27.792 7.55078C27.5785 7.4388 27.3076 7.38281 26.9795 7.38281H25.8389V14H24.1475ZM31.2695 14V6H32.9609V12.6055H36.3906V14H31.2695ZM42.4521 6H44.1436V11.1953C44.1436 11.7786 44.0042 12.2891 43.7256 12.7266C43.4495 13.1641 43.0628 13.5052 42.5654 13.75C42.068 13.9922 41.4886 14.1133 40.8271 14.1133C40.1631 14.1133 39.5824 13.9922 39.085 13.75C38.5876 13.5052 38.2008 13.1641 37.9248 12.7266C37.6488 12.2891 37.5107 11.7786 37.5107 11.1953V6H39.2021V11.0508C39.2021 11.3555 39.2686 11.6263 39.4014 11.8633C39.5368 12.1003 39.7269 12.2865 39.9717 12.4219C40.2165 12.5573 40.5016 12.625 40.8271 12.625C41.1553 12.625 41.4404 12.5573 41.6826 12.4219C41.9274 12.2865 42.1162 12.1003 42.249 11.8633C42.3844 11.6263 42.4521 11.3555 42.4521 11.0508V6ZM49.875 8.30078C49.8438 7.98568 49.7096 7.74089 49.4727 7.56641C49.2357 7.39193 48.9141 7.30469 48.5078 7.30469C48.2318 7.30469 47.9987 7.34375 47.8086 7.42187C47.6185 7.4974 47.4727 7.60286 47.3711 7.73828C47.2721 7.8737 47.2227 8.02734 47.2227 8.19922C47.2174 8.34245 47.2474 8.46745 47.3125 8.57422C47.3802 8.68099 47.4727 8.77344 47.5898 8.85156C47.707 8.92708 47.8424 8.99349 47.9961 9.05078C48.1497 9.10547 48.3138 9.15234 48.4883 9.19141L49.207 9.36328C49.556 9.44141 49.8763 9.54557 50.168 9.67578C50.4596 9.80599 50.7122 9.96615 50.9258 10.1562C51.1393 10.3464 51.3047 10.5703 51.4219 10.8281C51.5417 11.0859 51.6029 11.3815 51.6055 11.7148C51.6029 12.2044 51.4779 12.6289 51.2305 12.9883C50.9857 13.3451 50.6315 13.6224 50.168 13.8203C49.707 14.0156 49.151 14.1133 48.5 14.1133C47.8542 14.1133 47.2917 14.0143 46.8125 13.8164C46.3359 13.6185 45.9635 13.3255 45.6953 12.9375C45.4297 12.5469 45.2904 12.0638 45.2773 11.4883H46.9141C46.9323 11.7565 47.0091 11.9805 47.1445 12.1602C47.2826 12.3372 47.4661 12.4714 47.6953 12.5625C47.9271 12.651 48.1888 12.6953 48.4805 12.6953C48.7669 12.6953 49.0156 12.6536 49.2266 12.5703C49.4401 12.487 49.6055 12.3711 49.7227 12.2227C49.8398 12.0742 49.8984 11.9036 49.8984 11.7109C49.8984 11.5312 49.8451 11.3802 49.7383 11.2578C49.6341 11.1354 49.4805 11.0312 49.2773 10.9453C49.0768 10.8594 48.8307 10.7812 48.5391 10.7109L47.668 10.4922C46.9935 10.3281 46.4609 10.0716 46.0703 9.72266C45.6797 9.3737 45.4857 8.90365 45.4883 8.3125C45.4857 7.82812 45.6146 7.40495 45.875 7.04297C46.138 6.68099 46.4987 6.39844 46.957 6.19531C47.4154 5.99219 47.9362 5.89062 48.5195 5.89062C49.1133 5.89062 49.6315 5.99219 50.0742 6.19531C50.5195 6.39844 50.8659 6.68099 51.1133 7.04297C51.3607 7.40495 51.4883 7.82422 51.4961 8.30078H49.875Z" fill="#FA00FF"/>
<path d="M13.2139 12.9516C14.7818 12.9516 16.3493 12.9516 17.9172 12.9516C18.2165 12.9516 18.2535 12.9937 18.2063 13.2954C18.1486 13.6672 18.0882 14.0382 18.0255 14.4093C17.9867 14.6408 17.9531 14.667 17.7101 14.667C15.7618 14.667 13.8135 14.667 11.8652 14.667C10.8256 14.667 9.78639 14.667 8.74677 14.667C8.4781 14.667 8.45885 14.6507 8.41546 14.3911C8.35282 14.0143 8.28942 13.638 8.22791 13.2609C8.18753 13.013 8.23886 12.952 8.49319 12.9516C10.0664 12.9509 11.64 12.9512 13.2131 12.9516H13.2139Z" fill="#FFB800"/>
<path d="M10.5894 8.12124C11.1645 7.41743 11.7298 6.72537 12.2951 6.03331C12.5328 5.74224 12.7701 5.45078 13.0079 5.15971C13.1811 4.94785 13.2611 4.94709 13.4313 5.15554C14.1984 6.09509 14.9652 7.03502 15.7324 7.97456C15.7682 8.01853 15.8052 8.06174 15.8501 8.11517C15.8928 8.08561 15.9346 8.05946 15.9731 8.02914C17.0029 7.22186 18.0316 6.41345 19.0625 5.60769C19.1222 5.56107 19.1976 5.51445 19.2693 5.50801C19.3972 5.49664 19.4505 5.60769 19.4214 5.78582C19.2769 6.6689 19.1331 7.55198 18.9882 8.43505C18.7761 9.72859 18.5603 11.0217 18.3539 12.3164C18.3252 12.4957 18.2429 12.5548 18.0712 12.5548C14.8388 12.5522 11.6064 12.5533 8.37435 12.5529C8.16114 12.5529 8.12077 12.5143 8.08605 12.3032C7.73775 10.1713 7.38794 8.03975 7.04266 5.90748C7.02229 5.78203 6.93549 5.62816 7.09021 5.53113C7.24643 5.43297 7.34191 5.57851 7.44304 5.65772C8.46076 6.45249 9.47584 7.25067 10.4921 8.04771C10.5185 8.06856 10.546 8.08864 10.5894 8.12162V8.12124Z" fill="#FFB800"/>
</svg>
